# xmcd CD database file
#
# Track frame offsets:
#        150
#        20659
#        39148
#        56834
#        74858
#        88610
#        101721
#        121930
#        137404
#        157996
#        173335
#        188947
#        203899
#        219875
#
# Disc length: 3183 seconds
#
# Revision: 0
# Processed by: cddbd v1.5.2PL0 Copyright (c) Steve Scherf et al.
# Submitted via: CUERipper 2.1.2a
#
DISCID=bd0c6d0e
DTITLE=Brooks and Dunn - Steers and Stripes
DYEAR=2001
DGENRE=
TTITLE0=Only in America
TTITLE1=The Last Thing I Do
TTITLE2=The Long Goodbye
TTITLE3=Go West
TTITLE4=My Heart Is Lost to You
TTITLE5=Good Girls Go to Heaven
TTITLE6=When She's Gone, She's Gone
TTITLE7=Ain't Nothing 'Bout You
TTITLE8=Unloved
TTITLE9=Deny, Deny, Deny
TTITLE10=Lucky Me, Lonely You
TTITLE11=I Fall
TTITLE12=Every River
TTITLE13=See Jane Dance
EXTD=
EXTT0=
EXTT1=
EXTT2=
EXTT3=
EXTT4=
EXTT5=
EXTT6=
EXTT7=
EXTT8=
EXTT9=
EXTT10=
EXTT11=
EXTT12=
EXTT13=
PLAYORDER=
